<svg width="134" height="134" viewBox="0 0 134 134" fill="none" xmlns="http://www.w3.org/2000/svg">
<path d="M131.69 76.6794C130.413 76.6794 129.379 77.714 129.379 78.9899C129.379 83.0216 107.954 90.5416 66.9997 90.5416C64.1467 90.5416 61.4123 90.4974 58.7498 90.4283C59.2118 88.876 59.7836 87.1492 60.3777 85.3682C60.5779 84.7678 60.781 84.157 60.9846 83.5396C63.0428 83.5854 65.0583 83.6105 66.9997 83.6105C93.9319 83.6105 134 79.3034 134 67.4381C134 63.2844 129.514 59.9229 120.291 57.1622C119.064 56.7888 117.78 57.4918 117.415 58.7135C117.049 59.9352 117.744 61.2233 118.965 61.589C127.202 64.0538 129.379 66.4928 129.379 67.4381C129.379 71.4699 107.954 78.9899 66.9997 78.9899C65.4313 78.9899 63.946 78.9587 62.4343 78.9378C64.716 71.2328 66.0848 63.2556 61.7023 58.8736C59.279 56.4493 56.9981 56.4289 55.5069 56.8419C49.8145 58.419 46.8183 69.3277 46.2768 71.4982C45.9654 72.7358 46.7191 73.9889 47.9555 74.2993C49.1898 74.6063 50.4463 73.8583 50.7577 72.6207C51.852 68.2628 54.539 61.9038 56.7411 61.2945C57.1879 61.1749 57.7543 61.4591 58.4355 62.1407C61.2935 64.9997 59.6944 72.1708 57.6378 78.8373C22.8161 77.7996 4.62064 71.149 4.62064 67.4381C4.62064 66.3258 7.37314 63.5113 17.7877 60.824C19.0217 60.5047 19.7663 59.2458 19.4483 58.0094C19.128 56.7741 17.8688 56.0374 16.6325 56.3499C5.43982 59.2377 0 62.8646 0 67.4378C0 77.7901 30.4991 82.388 56.1651 83.3925C56.108 83.5631 56.0499 83.7387 55.9942 83.907C55.2271 86.2096 54.5123 88.3549 53.9897 90.2608C21.5439 88.8852 4.62064 82.5691 4.62064 78.9896C4.62064 77.7137 3.58738 76.6791 2.31019 76.6791C1.033 76.6791 0 77.7137 0 78.9896C0 88.9422 28.19 93.5754 53.1739 94.811C53.17 94.9199 53.1378 95.057 53.1378 95.1622C53.1378 102.961 58.2188 108.131 58.4352 108.347C58.8864 108.799 59.4777 109.024 60.0686 109.024C60.6599 109.024 61.2508 108.799 61.702 108.347C62.6044 107.445 62.6044 105.983 61.702 105.08C61.6638 105.041 57.7582 101.068 57.7582 95.162C57.7582 95.1138 57.7684 95.0507 57.7694 95.0005C60.9553 95.1075 64.058 95.162 66.9995 95.162C93.9316 95.162 133.999 90.8549 133.999 78.9896C134 77.7137 132.967 76.6794 131.69 76.6794Z" fill="#DDDDDD"/>
<path d="M39.0322 43.3011C38.4614 42.1595 37.0737 41.6981 35.9321 42.2678C35.7269 42.3704 15.5 52.7771 25.6576 73.092C26.0638 73.902 26.8782 74.3703 27.7265 74.3689C28.074 74.3689 28.4258 74.291 28.7576 74.1253C29.8992 73.5545 30.3617 72.1668 29.7909 71.0252C21.7161 54.8743 37.3357 46.7372 38.0034 46.3988C39.1405 45.8259 39.6006 44.4406 39.0322 43.3011Z" fill="#DDDDDD"/>
<path d="M43.8491 48.4857C43.5874 47.2358 42.3555 46.4291 41.1167 46.6932C40.5708 46.806 27.7759 49.7323 32.3897 72.5175C32.613 73.6128 33.5766 74.3687 34.6528 74.3687C34.8041 74.3687 34.9596 74.354 35.1132 74.3223C36.3652 74.0695 37.1732 72.8502 36.9203 71.5992C33.2856 53.6568 41.647 51.3194 42.0848 51.211C43.3168 50.9383 44.1064 49.7255 43.8491 48.4857Z" fill="#DDDDDD"/>
<path d="M53.0137 50.5154C52.5986 49.3083 51.2921 48.6653 50.0762 49.0804C49.9228 49.1335 34.6484 54.6047 39.3502 72.6419C39.621 73.6809 40.5596 74.3702 41.5837 74.3702C41.7776 74.3692 41.9739 74.3454 42.1681 74.2946C43.4045 73.9719 44.1446 72.7107 43.8219 71.4754C40.2233 57.6776 51.0801 53.6277 51.5855 53.4484C52.7881 53.031 53.4267 51.719 53.0137 50.5154Z" fill="#DDDDDD"/>
<path d="M35.2148 35.1619C28.9066 33.5848 23.9926 34.3058 20.6083 37.3088C15.0918 42.1969 16.1434 51.1721 16.1907 51.5521C16.3373 52.7206 17.33 53.5736 18.4784 53.5736C18.5732 53.5736 18.6679 53.5678 18.7626 53.5555C20.0283 53.4011 20.9286 52.2493 20.7753 50.9847C20.7685 50.9148 19.9878 44.0164 23.6835 40.7562C25.8584 38.8362 29.3578 38.4583 34.096 39.6449C35.3255 39.9564 36.5867 39.2005 36.8958 37.9639C37.207 36.7254 36.4535 35.471 35.2148 35.1619Z" fill="#DDDDDD"/>
<path d="M96.6284 43.0258C88.6484 31.4198 79.5445 25.3519 69.5675 24.991C52.8288 24.4259 40.3115 39.9192 39.7813 40.5813C38.9849 41.5764 39.1474 43.0281 40.1422 43.8256C41.1417 44.6277 42.5948 44.4631 43.3888 43.4691C43.504 43.3246 55.112 29.0419 69.4209 29.6093C77.8501 29.9228 85.7221 35.3174 92.8199 45.6429C93.269 46.2949 93.9908 46.6448 94.7263 46.6448C95.1775 46.6448 95.6334 46.5129 96.0325 46.2386C97.0841 45.5155 97.3505 44.0773 96.6284 43.0258Z" fill="#DDDDDD"/>
<path d="M89.6612 45.2855C83.7453 37.1518 76.9249 32.829 69.3892 32.4364C56.7995 31.8125 47.2062 42.3401 46.8003 42.7889C45.9476 43.7377 46.0243 45.1986 46.9717 46.0515C47.9239 46.9089 49.3814 46.8299 50.2343 45.8801C50.3178 45.7864 58.792 36.5012 69.1479 37.0515C75.2237 37.3674 80.8687 41.053 85.9249 48.0042C86.3761 48.6258 87.0801 48.9553 87.7954 48.9553C88.267 48.9553 88.7407 48.8121 89.1514 48.513C90.1846 47.7626 90.4126 46.3177 89.6612 45.2855Z" fill="#DDDDDD"/>
<path d="M78.0893 45.2585C71.5735 36.5665 59.5907 41.1081 54.1669 44.7227C53.1064 45.4302 52.8198 46.8615 53.5262 47.923C54.2302 48.9822 55.6605 49.2722 56.7278 48.5695C56.845 48.486 68.8616 40.6504 74.3938 48.0314C74.8473 48.636 75.5399 48.9552 76.2439 48.9552C76.7267 48.9552 77.2117 48.8053 77.6268 48.4928C78.6488 47.7278 78.8564 46.2792 78.0893 45.2585Z" fill="#DDDDDD"/>
<path d="M100.978 47.3216C100.076 46.4192 98.6141 46.4192 97.7114 47.3216C89.2621 55.7699 69.5088 55.8861 69.3105 55.8861C68.0335 55.8872 67 56.9217 67 58.1976C67.0024 59.4735 68.0356 60.5068 69.3105 60.5068C70.1995 60.5068 91.1731 60.394 100.978 50.5884C101.881 49.6863 101.881 48.224 100.978 47.3216Z" fill="#DDDDDD"/>
<path d="M107.618 47.0745C106.583 46.3368 105.139 46.5749 104.396 47.6126C93.6864 62.6062 69.5518 62.8172 69.3081 62.8172C68.0333 62.8195 67 63.8538 67 65.1297C67.0024 66.4046 68.0356 67.4378 69.3105 67.4378C70.3958 67.4378 96.0531 67.2426 108.155 50.2976C108.898 49.2596 108.656 47.8168 107.618 47.0745Z" fill="#DDDDDD"/>
<path d="M116.663 49.2596C115.553 48.6258 114.143 49.0092 113.512 50.1191C104.952 65.0991 69.3826 69.7211 69.0238 69.7661C67.7581 69.9252 66.8602 71.0791 67.018 72.3448C67.1646 73.5134 68.1596 74.3687 69.308 74.3687C69.4028 74.3687 69.4999 74.3629 69.5967 74.3506C71.1534 74.1564 107.821 69.3916 117.523 52.4113C118.157 51.3039 117.771 49.8925 116.663 49.2596Z" fill="#DDDDDD"/>
</svg>
