<svg width="116" height="116" viewBox="0 0 116 116" fill="none" xmlns="http://www.w3.org/2000/svg">
<g clip-path="url(#clip0_19_1748)">
<path d="M28.5921 79.5489C28.5921 80.5479 27.7822 81.3577 26.7832 81.3577H26.301C25.302 81.3577 24.4922 80.5479 24.4922 79.5489C24.4922 78.5498 25.302 77.74 26.301 77.74H26.7832C27.7822 77.74 28.5921 78.5498 28.5921 79.5489ZM17.481 62.9088H16.999C16 62.9088 15.1902 63.7186 15.1902 64.7176C15.1902 65.7167 16 66.5265 16.999 66.5265H17.481C18.48 66.5265 19.2898 65.7167 19.2898 64.7176C19.2898 63.7186 18.4802 62.9088 17.481 62.9088ZM34.9627 48.3101H34.4802C33.4812 48.3101 32.6714 49.12 32.6714 50.119C32.6714 51.118 33.4812 51.9279 34.4802 51.9279H34.9627C35.9617 51.9279 36.7716 51.118 36.7716 50.119C36.7716 49.1197 35.9617 48.3101 34.9627 48.3101ZM46.0862 24.6198H45.6046C44.6055 24.6198 43.7957 25.4297 43.7957 26.4287C43.7957 27.4277 44.6055 28.2376 45.6046 28.2376H46.0862C47.0853 28.2376 47.8951 27.4277 47.8951 26.4287C47.8951 25.4299 47.0853 24.6198 46.0862 24.6198ZM68.5344 44.8322C68.5344 41.6369 71.1345 39.0373 74.33 39.0373C77.5252 39.0373 80.1249 41.6369 80.1249 44.8322C80.1249 48.0277 77.5252 50.6273 74.33 50.6273C71.1342 50.627 68.5344 48.0274 68.5344 44.8322ZM72.1521 44.8322C72.1521 46.0327 73.1289 47.0095 74.33 47.0095C75.5306 47.0095 76.5071 46.0327 76.5071 44.8322C76.5071 43.6316 75.5306 42.6551 74.33 42.6551C73.1289 42.6548 72.1521 43.6316 72.1521 44.8322ZM33.1853 39.8575C33.1853 43.053 30.5855 45.6526 27.39 45.6526C24.1945 45.6526 21.5946 43.053 21.5946 39.8575C21.5946 36.662 24.1945 34.0624 27.39 34.0624C30.5855 34.0624 33.1853 36.662 33.1853 39.8575ZM29.5676 39.8575C29.5676 38.6569 28.5908 37.6801 27.39 37.6801C26.1891 37.6801 25.2123 38.6569 25.2123 39.8575C25.2123 41.0581 26.1891 42.0349 27.39 42.0349C28.5908 42.0349 29.5676 41.0581 29.5676 39.8575ZM19.4343 48.3101H18.9521C17.9531 48.3101 17.1432 49.12 17.1432 50.119C17.1432 51.118 17.9531 51.9279 18.9521 51.9279H19.4343C20.4333 51.9279 21.2432 51.118 21.2432 50.119C21.2432 49.1197 20.4333 48.3101 19.4343 48.3101ZM55.0314 28.2376H55.5136C56.5126 28.2376 57.3224 27.4277 57.3224 26.4287C57.3224 25.4297 56.5126 24.6198 55.5136 24.6198H55.0314C54.0324 24.6198 53.2225 25.4297 53.2225 26.4287C53.2225 27.428 54.0324 28.2376 55.0314 28.2376ZM93.6369 77.7074C93.902 77.8441 94.1855 77.909 94.4646 77.909C95.1199 77.909 95.7522 77.5516 96.0737 76.9291L96.2946 76.5006C96.7525 75.6127 96.4045 74.5217 95.5163 74.0636C94.6284 73.6054 93.5377 73.9543 93.0795 74.8419L92.8586 75.2704C92.4007 76.1583 92.749 77.2493 93.6369 77.7074ZM76.4999 98.334C76.9792 99.1648 76.7252 100.218 75.9383 100.742C75.8823 100.784 75.8236 100.823 75.7616 100.858C68.1294 105.255 59.4143 107.578 50.5585 107.578C41.4263 107.578 32.851 105.144 25.4485 100.891C25.3912 100.865 25.3348 100.837 25.2793 100.805C25.2219 100.772 25.1669 100.736 25.1147 100.697C10.1041 91.92 0 75.628 0 57.0201C0 38.4117 10.1039 22.12 25.1144 13.3423C25.1669 13.304 25.2219 13.2681 25.2795 13.2348C25.3354 13.2027 25.3919 13.1738 25.4491 13.1485C32.8515 8.89553 41.4266 6.4613 50.5588 6.4613C59.691 6.4613 68.2661 8.89527 75.6683 13.1482C75.7259 13.1738 75.7823 13.2025 75.8378 13.2348C75.8955 13.2678 75.9502 13.3038 76.0027 13.342C91.0135 22.1197 101.118 38.4117 101.118 57.0196V57.0199C101.118 58.0189 100.308 58.8287 99.3087 58.8287H58.2212C58.2085 58.8287 58.1959 58.8287 58.1835 58.8285H53.6851L55.8327 62.5643C55.8774 62.6235 55.9188 62.686 55.9567 62.7519L76.4999 98.334ZM72.3723 98.5947L48.9905 57.9212C48.6688 57.3615 48.6696 56.6725 48.9931 56.1136C49.3164 55.5547 49.9133 55.2107 50.5588 55.2107H90.0595C89.5651 44.3862 84.6504 34.2205 76.4045 27.0925C75.6487 26.4393 75.5657 25.2969 76.219 24.541C76.8725 23.7849 78.0142 23.7017 78.7705 24.3555C87.8123 32.1716 93.1839 43.3334 93.6806 55.2105H97.4652C96.8585 39.266 88.2607 25.3346 75.5717 17.3125L55.9565 51.2878C55.457 52.1529 54.3507 52.4496 53.4853 51.9498C52.6202 51.4503 52.3238 50.3441 52.823 49.4789L68.7457 21.899C63.155 19.0017 56.9038 17.4773 50.558 17.4773C45.8534 17.4773 41.2501 18.2952 36.8762 19.9082C35.9379 20.254 34.8989 19.7741 34.5534 18.8368C34.2076 17.8996 34.6875 16.8595 35.6247 16.5137C40.4007 14.7527 45.4252 13.8596 50.5583 13.8596C57.5387 13.8596 64.4153 15.5501 70.5567 18.7629L72.4415 15.4982C65.9037 12.0386 58.4558 10.0783 50.5583 10.0783C42.6607 10.0783 35.2126 12.0386 28.6748 15.4984L48.2931 49.4792C48.7926 50.3443 48.4959 51.4506 47.6308 51.9501C46.7651 52.4499 45.6591 52.1532 45.1596 51.288L29.2386 23.7107C19.7061 29.8121 13.2802 39.5851 11.5062 50.7792C11.3499 51.7658 10.4225 52.44 9.43638 52.2827C8.44977 52.1263 7.77661 51.1997 7.93295 50.2131C9.87852 37.9365 16.9471 27.2267 27.428 20.5747L25.5449 17.313C12.8562 25.3351 4.25861 39.2668 3.65212 55.2112H42.8964C43.8954 55.2112 44.7053 56.0211 44.7053 57.0201C44.7053 58.0191 43.8954 58.829 42.8964 58.829H11.0579C11.5577 69.8153 16.5928 80.0851 25.0459 87.2311C25.8088 87.8761 25.9044 89.0175 25.2594 89.7804C24.6146 90.5432 23.4732 90.6393 22.7102 89.9941C13.442 82.1588 7.93837 70.8831 7.4368 58.829H3.65212C4.25887 74.7734 12.8562 88.7046 25.5452 96.7267L45.1604 62.7514C45.6604 61.8862 46.7664 61.5898 47.6315 62.0893C48.4967 62.5889 48.7931 63.6951 48.2938 64.5603L32.3711 92.1399C37.9618 95.0377 44.2135 96.5621 50.5591 96.5621C55.2681 96.5621 59.8745 95.7432 64.2504 94.1279C65.188 93.7821 66.2278 94.2615 66.5738 95.1985C66.9196 96.1355 66.4402 97.1758 65.503 97.5218C60.7247 99.2857 55.6968 100.18 50.5588 100.18C43.5786 100.18 36.7015 98.4893 30.5602 95.276L28.6753 98.541C35.2131 102.001 42.6613 103.961 50.5588 103.961C58.1747 103.961 65.6779 102.11 72.3723 98.5947ZM89.3101 86.083C89.5755 86.2202 89.8592 86.2851 90.1385 86.2851C90.7936 86.2851 91.4257 85.9282 91.7474 85.306L91.9686 84.8775C92.4268 83.9899 92.0792 82.8986 91.1913 82.4402C90.3031 81.9813 89.2129 82.3299 88.754 83.2173L88.5328 83.6457C88.0746 84.5333 88.4224 85.6246 89.3101 86.083ZM82.688 77.3583C82.9534 77.4955 83.2372 77.5604 83.5168 77.5604C84.1718 77.5604 84.8039 77.2035 85.1254 76.5813L85.3466 76.1528C85.805 75.2652 85.4574 74.1742 84.5698 73.7155C83.6829 73.2571 82.5911 73.6049 82.1325 74.4923L81.9112 74.9207C81.4528 75.8086 81.8007 76.8999 82.688 77.3583ZM116 65.4606C116 74.5093 113.581 83.3881 109.004 91.1375C104.561 98.6588 98.2121 104.939 90.644 109.299C90.367 109.459 89.8165 109.635 89.2705 109.478C88.809 109.346 88.4123 109.049 88.1731 108.633L63.8739 66.3622C63.5522 65.8022 63.553 65.1135 63.8765 64.5546C64.1998 63.9956 64.7967 63.6517 65.4422 63.6517H114.191C115.19 63.6517 116 64.4616 116 65.4606ZM112.347 67.2694H68.5682L86.6988 98.8095C95.9827 92.8877 102.374 83.4232 104.344 72.5793C104.523 71.5965 105.462 70.9438 106.448 71.1229C107.431 71.3014 108.083 72.2431 107.904 73.2261C105.743 85.1197 98.7116 95.4928 88.5038 101.949L90.3897 105.23C103.49 96.9908 111.747 82.7159 112.347 67.2694ZM57.0788 87.7611H57.561C58.56 87.7611 59.3698 86.9513 59.3698 85.9523C59.3698 84.9533 58.56 84.1434 57.561 84.1434H57.0788C56.0798 84.1434 55.2699 84.9533 55.2699 85.9523C55.2699 86.9513 56.0798 87.7611 57.0788 87.7611ZM51.5229 86.7707C51.5229 89.9662 48.9231 92.5658 45.7276 92.5658C42.5326 92.5658 39.933 89.9662 39.933 86.7707C39.933 83.5752 42.5326 80.9755 45.7276 80.9755C48.9231 80.9753 51.5229 83.5752 51.5229 86.7707ZM47.9052 86.7707C47.9052 85.5701 46.9284 84.5933 45.7276 84.5933C44.5272 84.5933 43.5507 85.5701 43.5507 86.7707C43.5507 87.9712 44.5272 88.948 45.7276 88.948C46.9284 88.9478 47.9052 87.9712 47.9052 86.7707ZM48.2031 72.2033C48.2031 73.2023 49.013 74.0122 50.012 74.0122H50.4939C51.493 74.0122 52.3028 73.2023 52.3028 72.2033C52.3028 71.2043 51.493 70.3944 50.4939 70.3944H50.012C49.013 70.3944 48.2031 71.2043 48.2031 72.2033ZM50.318 38.1246H50.8004C51.7994 38.1246 52.6093 37.3148 52.6093 36.3157C52.6093 35.3167 51.7994 34.5069 50.8004 34.5069H50.318C49.319 34.5069 48.5091 35.3167 48.5091 36.3157C48.5091 37.3148 49.3187 38.1246 50.318 38.1246ZM35.9377 67.7398C35.9377 70.9353 33.3378 73.5349 30.1423 73.5349C26.9471 73.5349 24.3474 70.9353 24.3474 67.7398C24.3474 64.5443 26.9471 61.9446 30.1423 61.9446C33.3381 61.9446 35.9377 64.5443 35.9377 67.7398ZM32.3199 67.7398C32.3199 66.5392 31.3431 65.5624 30.1423 65.5624C28.9417 65.5624 27.9652 66.5392 27.9652 67.7398C27.9652 68.9403 28.9417 69.9171 30.1423 69.9171C31.3431 69.9169 32.3199 68.9403 32.3199 67.7398Z" fill="#DDDDDD"/>
</g>
<defs>
<clipPath id="clip0_19_1748">
<rect width="116" height="116" fill="white"/>
</clipPath>
</defs>
</svg>
