<svg width="134" height="134" viewBox="0 0 134 134" fill="none" xmlns="http://www.w3.org/2000/svg">
<g clip-path="url(#clip0_19_1692)">
<path d="M35.405 65.6719C34.3872 64.98 32.9966 65.2389 32.3025 66.259L30.5592 68.8169C29.8628 69.8347 30.1284 71.2231 31.1463 71.9195C31.5324 72.1806 31.9677 72.3079 32.4029 72.3079C33.1149 72.3079 33.818 71.9686 34.2488 71.3325L35.9921 68.7745C36.6862 67.7544 36.4229 66.3661 35.405 65.6719Z" fill="#DDDDDD"/>
<path d="M27.6196 73.415L24.9836 71.7878C23.9278 71.1338 22.5573 71.4664 21.9122 72.5133C21.2649 73.5646 21.5886 74.9373 22.6377 75.5846L25.2737 77.2118C25.6398 77.4394 26.046 77.5444 26.4433 77.5444C27.1911 77.5444 27.9232 77.1671 28.3451 76.4841C28.9924 75.4373 28.6687 74.0646 27.6196 73.415Z" fill="#DDDDDD"/>
<path d="M41.2375 73.0779L44.3244 73.3168C44.3825 73.3212 44.4405 73.3234 44.4985 73.3234C45.6548 73.3234 46.6302 72.4351 46.7217 71.2633C46.8177 70.0334 45.898 68.962 44.6682 68.866L41.5812 68.6272C40.3558 68.5044 39.28 69.4508 39.184 70.6807C39.088 71.9106 40.0099 72.9819 41.2375 73.0779Z" fill="#DDDDDD"/>
<path d="M52.9894 74.0489L51.2461 76.6068C50.5497 77.6269 50.8153 79.0152 51.8331 79.7094C52.2193 79.9706 52.6545 80.0978 53.0898 80.0978C53.8018 80.0978 54.5049 79.7585 54.9357 79.1224L56.679 76.5644C57.3754 75.5444 57.1097 74.156 56.0919 73.4618C55.0719 72.7699 53.6858 73.0288 52.9894 74.0489Z" fill="#DDDDDD"/>
<path d="M49.9961 67.7857L52.6321 69.4129C52.9982 69.6405 53.4044 69.7455 53.8017 69.7455C54.5495 69.7455 55.2816 69.3682 55.7034 68.6852C56.3507 67.6339 56.0271 66.2612 54.978 65.6139L52.342 63.9867C51.2862 63.335 49.9157 63.6631 49.2706 64.7121C48.6233 65.7657 48.947 67.1384 49.9961 67.7857Z" fill="#DDDDDD"/>
<path d="M102.907 77.5376C103.619 77.5376 104.322 77.1983 104.753 76.5622L106.499 74.0042C107.195 72.9864 106.929 71.5981 105.912 70.9017C104.898 70.2097 103.503 70.4686 102.809 71.4887L101.064 74.0466C100.367 75.0645 100.633 76.4528 101.651 77.1492C102.037 77.4126 102.474 77.5376 102.907 77.5376Z" fill="#DDDDDD"/>
<path d="M94.171 68.8906L96.807 70.5178C97.1731 70.7454 97.5793 70.8503 97.9767 70.8503C98.7244 70.8503 99.4565 70.4731 99.8784 69.7901C100.526 68.7388 100.202 67.3661 99.153 66.7188L96.5169 65.0916C95.4633 64.4376 94.0884 64.7679 93.4456 65.817C92.7983 66.8705 93.1219 68.2433 94.171 68.8906Z" fill="#DDDDDD"/>
<path d="M62.5604 67.8438L65.6496 68.0826C65.7076 68.0871 65.7679 68.0893 65.8237 68.0893C66.9799 68.0893 67.9553 67.2009 68.0468 66.0291C68.1428 64.7992 67.2232 63.7278 65.9933 63.6319L62.9041 63.393C61.6475 63.306 60.6029 64.2167 60.5069 65.4465C60.4109 66.6764 61.3305 67.7478 62.5604 67.8438Z" fill="#DDDDDD"/>
<path d="M64.7836 72.9619C63.6006 72.6382 62.3707 73.348 62.0493 74.54C61.7279 75.7297 62.4355 76.9551 63.6274 77.2742L66.6184 78.0756C66.8126 78.1269 67.0067 78.1514 67.1987 78.1514C68.183 78.1514 69.0848 77.4952 69.3526 76.4975C69.6741 75.3078 68.9665 74.0824 67.7746 73.7632L64.7836 72.9619Z" fill="#DDDDDD"/>
<path d="M76.6314 75.3011C76.9327 76.2519 77.81 76.8568 78.7586 76.8568C78.9818 76.8568 79.2095 76.8234 79.4349 76.7519L82.3879 75.8145C83.562 75.4417 84.2115 74.1873 83.8388 73.011C83.4682 71.8391 82.2205 71.1829 81.0353 71.5601L78.0823 72.4976C76.9082 72.8704 76.2587 74.127 76.6314 75.3011Z" fill="#DDDDDD"/>
<path d="M73.8927 71.4574C74.4618 71.4574 75.031 71.2409 75.4663 70.8079L77.6626 68.6227C78.5376 67.7544 78.5421 66.3415 77.6716 65.4666C76.8011 64.5916 75.3904 64.5849 74.5154 65.4576L72.3191 67.6428C71.4441 68.5111 71.4396 69.924 72.3101 70.799C72.7476 71.2365 73.319 71.4574 73.8927 71.4574Z" fill="#DDDDDD"/>
<path d="M89.5908 75.0221C89.8542 76.022 90.7582 76.6827 91.747 76.6827C91.9367 76.6827 92.1287 76.6582 92.3206 76.6091C93.5103 76.2944 94.2223 75.0734 93.9076 73.8793L93.1175 70.8838C92.8028 69.6897 91.5773 68.9799 90.3877 69.2968C89.198 69.6115 88.4859 70.8325 88.8007 72.0266L89.5908 75.0221Z" fill="#DDDDDD"/>
<path d="M82.1691 64.5068L85.2583 64.7478C85.3163 64.7523 85.3766 64.7545 85.4346 64.7545C86.5886 64.7545 87.5663 63.8684 87.6578 62.6966C87.7538 61.4667 86.8364 60.3931 85.6065 60.2971L82.5173 60.056C81.3031 59.9601 80.2138 60.8752 80.1179 62.1073C80.0219 63.3372 80.9393 64.4108 82.1691 64.5068Z" fill="#DDDDDD"/>
<path d="M54.0763 45.9003C54.621 47.8064 56.3888 49.1345 58.3731 49.1345C58.7882 49.1345 59.1989 49.0787 59.5985 48.9627L66.0358 47.119C67.1808 46.7909 68.1294 46.0364 68.7075 44.9918C69.2856 43.9472 69.4263 42.7419 69.0982 41.5968L67.2545 35.1595C66.596 32.8583 64.0447 31.4231 61.7323 32.0971L55.295 33.9408C54.15 34.269 53.2014 35.0234 52.6233 36.068C52.0429 37.1126 51.9045 38.3179 52.2326 39.463L54.0763 45.9003Z" fill="#DDDDDD"/>
<path d="M35.789 55.833C40.7129 55.833 44.7173 51.8287 44.7173 46.9047C44.7173 41.9808 40.7129 37.9764 35.789 37.9764C30.865 37.9764 26.8607 41.9808 26.8607 46.9047C26.8607 51.8287 30.865 55.833 35.789 55.833Z" fill="#DDDDDD"/>
<path d="M78.8278 48.8198C79.417 50.4358 80.9683 51.5206 82.687 51.5206C83.1691 51.5206 83.6468 51.4358 84.0999 51.2706L86.8565 50.2617C88.9859 49.485 90.0841 47.1212 89.3096 44.9896L84.4637 31.7445C83.7071 29.6776 81.2562 28.5393 79.1916 29.2982L76.435 30.3071C75.4038 30.6843 74.5801 31.4409 74.1181 32.4364C73.6538 33.4319 73.607 34.548 73.9842 35.5792L78.8278 48.8198Z" fill="#DDDDDD"/>
<path d="M133.52 82.7183C132.779 81.2763 131.31 80.3835 129.69 80.3835H124.416C123.858 79.2474 123.043 78.2586 121.983 77.5399C121.255 77.0443 120.864 76.3078 120.94 75.5667C121.032 74.6583 120.974 73.8704 120.755 73.1561C120.007 70.7097 117.918 68.7544 115.436 68.1763C115.146 68.1116 114.831 68.067 114.494 68.038C113.61 65.6028 111.286 63.8528 108.559 63.826C108.157 61.373 106.53 59.324 104.318 58.3128C104.307 57.9468 104.267 57.5829 104.162 57.2213L102.318 50.7841C101.66 48.4828 99.1083 47.061 96.7959 47.7217L90.3586 49.5654C89.2136 49.8935 88.2649 50.6479 87.6868 51.6925C87.2203 52.534 87.0529 53.4804 87.1735 54.4156C84.8209 54.2973 82.5151 54.217 80.263 54.1813C79.4862 50.0452 75.8613 46.9025 71.5021 46.9025C66.971 46.9025 63.2591 50.3064 62.6899 54.6857C60.6944 54.8286 58.7213 54.9893 56.7838 55.1857L56.8062 55.1611C57.5427 54.3464 57.9155 53.2907 57.8597 52.1925C57.8039 51.0988 57.324 50.0921 56.5093 49.3533L54.3241 47.3846C52.7058 45.9271 49.9805 46.0722 48.5185 47.6882L39.4027 57.8039C37.4251 58.2035 35.51 58.6298 33.6484 59.0762C33.6618 58.5851 33.6127 58.0919 33.4632 57.6075C33.1083 56.4669 32.3293 55.5339 31.2758 54.9826L25.3451 51.8733C23.2291 50.7617 20.4234 51.6479 19.3208 53.7572L16.2115 59.6878C15.6602 60.7436 15.5508 61.9511 15.908 63.0895C16.1981 64.0225 16.7852 64.8037 17.5619 65.3639C17.5485 65.6296 17.5597 65.8996 17.5976 66.1697C17.7182 66.9599 17.3052 67.6518 16.9392 68.0915C16.2227 68.9531 15.312 69.3236 15.0531 69.3326C14.1201 69.3638 13.2741 69.7633 12.6023 70.4932C11.4126 71.7834 11.0532 73.8346 10.9528 75.1828C9.41041 76.0846 6.9105 77.7541 6.79443 80.3835H4.30567C2.68519 80.3835 1.21872 81.2763 0.477676 82.7183C-0.263371 84.1602 -0.136143 85.8722 0.803558 87.1913L1.07141 87.5685L12.7652 94.6018C13.2942 95.5214 13.6558 96.816 14.0062 98.0771C14.8098 100.972 15.9124 104.936 20.1623 104.936H113.909C118.157 104.936 119.259 100.972 120.065 98.0771C120.416 96.8182 120.775 95.5192 121.306 94.5996L132.926 87.5663L133.192 87.1913C134.134 85.8744 134.261 84.1602 133.52 82.7183ZM13.5755 78.8233C14.3656 78.3702 15.4482 77.7497 15.3812 76.3122C15.3366 75.4105 15.5397 74.2788 15.7696 73.7431C17.3789 73.4954 19.1311 72.4418 20.3721 70.9486C21.1913 69.9642 21.727 68.8571 21.9636 67.7433L24.0215 68.8214C24.0394 68.8303 24.0595 68.8326 24.0751 68.8415C24.343 68.9777 24.622 69.0826 24.9054 69.1562C25.1086 69.212 25.3161 69.2343 25.5237 69.2611C25.6041 69.2701 25.6844 69.2857 25.7648 69.2901C25.8719 69.2991 25.9791 69.3303 26.0862 69.3303C26.2335 69.3303 26.3697 69.2857 26.5125 69.2723C26.5594 69.2678 26.6063 69.2589 26.6531 69.2522C27.4411 69.1518 28.1665 68.8527 28.7825 68.3817C28.8852 68.308 28.9812 68.2277 29.0772 68.1451C29.2044 68.029 29.3316 67.9152 29.4455 67.7835C29.6754 67.5268 29.8852 67.2523 30.0504 66.9398L31.4789 64.2122C33.6663 63.6274 35.9765 63.0761 38.3715 62.5627C38.376 62.5716 38.3827 62.5805 38.3871 62.5917C38.4786 62.7948 38.5925 62.9868 38.7175 63.172C38.751 63.2234 38.7755 63.277 38.8112 63.3261C38.9786 63.556 39.1684 63.7702 39.3849 63.9667L41.5678 65.9331C42.3245 66.6161 43.2999 66.9911 44.3177 66.9911C45.4806 66.9911 46.5967 66.4956 47.3734 65.634L52.2818 60.1878C55.7906 59.7302 59.4601 59.3664 63.2144 59.0985C63.355 59.4534 63.5358 59.7838 63.7189 60.1163C63.7657 60.2034 63.8082 60.2904 63.8595 60.373C64.047 60.6855 64.2501 60.9824 64.4733 61.2681C64.5492 61.3685 64.6318 61.4623 64.7121 61.5583C64.9443 61.8328 65.1786 62.1006 65.442 62.3462C65.4777 62.3797 65.5157 62.4042 65.5514 62.4377C66.0335 62.8729 66.5625 63.2457 67.1317 63.5693C67.3393 63.6877 67.5446 63.8104 67.7611 63.9131C67.9821 64.0158 68.2053 64.1006 68.4352 64.1854C68.7299 64.2948 69.029 64.3863 69.3348 64.4644C69.5245 64.5113 69.712 64.5649 69.9062 64.6006C70.4262 64.6965 70.9575 64.7613 71.5021 64.7613C72.0534 64.7613 72.5891 64.6965 73.1137 64.5983C73.3302 64.5582 73.5378 64.4957 73.7498 64.4399C74.0333 64.364 74.3123 64.2836 74.5824 64.1809C74.8502 64.0827 75.1069 63.9711 75.3614 63.8484C75.5332 63.7635 75.6984 63.6698 75.8658 63.5738C77.3456 62.7368 78.551 61.5002 79.3523 59.9958C79.3768 59.9489 79.4036 59.9043 79.4282 59.8574C79.6179 59.4847 79.7786 59.1007 79.917 58.7012C79.9259 58.6744 79.9416 58.6499 79.9505 58.6231C82.687 58.6655 85.515 58.7659 88.4011 58.9333L89.1444 61.527C89.2604 61.931 89.4502 62.2948 89.6734 62.6386C89.7448 62.7546 89.8162 62.864 89.8966 62.9712C90.1042 63.2368 90.3341 63.4823 90.5952 63.6943C90.7649 63.835 90.9456 63.9466 91.1331 64.0604C91.2738 64.1452 91.4188 64.2189 91.5662 64.2903C91.8273 64.4131 92.0907 64.5135 92.3742 64.5849C92.6465 64.6564 92.921 64.7032 93.2023 64.7233C93.2849 64.7278 93.3585 64.7635 93.4411 64.7635C93.5036 64.7635 93.5639 64.7412 93.6264 64.7367C93.9545 64.7278 94.2826 64.6876 94.6062 64.5983C94.6263 64.5939 94.6464 64.5961 94.6643 64.5894L101.102 62.7457C101.485 62.6341 101.838 62.46 102.171 62.2591C102.177 62.2547 102.184 62.2547 102.189 62.2502C103.356 62.6453 104.191 63.7435 104.191 65.0224C104.191 67.1451 106.409 68.2924 108.496 68.2924C109.552 68.2924 110.409 69.1518 110.409 70.2053C110.409 70.4352 110.481 72.4396 112.985 72.4485C113.264 72.4508 114.117 72.453 114.427 72.5244C115.371 72.7454 116.199 73.5244 116.485 74.4574C116.496 74.4909 116.543 74.6784 116.498 75.1158C116.3 77.0533 117.032 78.9751 118.445 80.3835H88.7761L87.4681 80.2808C87.198 80.263 86.9391 80.3099 86.6891 80.3835H38.6818C38.9251 80.0755 39.117 79.7206 39.1684 79.301L39.55 76.2274C39.7018 75.0042 38.8335 73.8882 37.6104 73.7387C36.385 73.5802 35.2712 74.4551 35.1216 75.6783L34.7399 78.7519C34.664 79.3568 34.8426 79.9349 35.1863 80.3835H11.3813C11.6403 80.0777 12.2429 79.5867 13.5755 78.8233ZM31.4833 96.0102H22.3966C21.1623 96.0102 20.1645 95.0125 20.1645 93.7782C20.1645 92.5438 21.1623 91.5461 22.3966 91.5461H31.4833C32.7177 91.5461 33.7154 92.5438 33.7154 93.7782C33.7154 95.0125 32.7177 96.0102 31.4833 96.0102ZM111.679 96.0102H42.4517C41.2174 96.0102 40.2197 95.0125 40.2197 93.7782C40.2197 92.5438 41.2174 91.5461 42.4517 91.5461H111.679C112.914 91.5461 113.911 92.5438 113.911 93.7782C113.911 95.0125 112.914 96.0102 111.679 96.0102Z" fill="#DDDDDD"/>
</g>
<defs>
<clipPath id="clip0_19_1692">
<rect width="134" height="134" fill="white"/>
</clipPath>
</defs>
</svg>
